{"title":"6--5=2  (2014) Scam Rip The Shadow.mpg","uid":11469911,"size":547432452,"categoryP":"video","categoryS":"movies","magnet":"?xt=urn:btih:6b298d4b9af3f020acbcca9471236a8019335877&amp;dn=6--5%3D2++%282014%29+Scam+Rip+The+Shadow.mpg&amp;tr=udp%3A%2F%2Ftracker.openbittorrent.com%3A80&amp;tr=udp%3A%2F%2Fopen.demonii.com%3A1337&amp;tr=udp%3A%2F%2Ftracker.coppersurfer.tk%3A6969&amp;tr=udp%3A%2F%2Fexodus.desync.com%3A6969","seeders":1,"leechers":0,"uploader":"inovai","files":1,"time":1416071399,"description":"6--5=2 (2014) Scam Rip The Shadow\n\nCover:\n &lt;a href=&quot;\nhttp://forum.primetimeshow.in/viewtopic.php?f=7&amp;t=816&quot; rel=&quot;nofollow&quot; target=&quot;_NEW&quot;&gt;\nhttp://forum.primetimeshow.in/viewtopic.php?f=7&amp;t=816&lt;/a&gt;\n\nScreenshots:\n &lt;a href=&quot;\nhttp://m.primetimeshow.in/share-2A15_54677A66.html&quot; rel=&quot;nofollow&quot; target=&quot;_NEW&quot;&gt;\nhttp://m.primetimeshow.in/share-2A15_54677A66.html&lt;/a&gt;\n\nGeneral\nComplete name : 6--5=2 (2014) Scam Rip The Shadow.mpg\nFormat : MPEG-PS\nFile size : 522 MiB\nDuration : 1h 39mn\nOverall bit rate mode : Variable\nOverall bit rate : 731 Kbps\nWriting library : encoded by TMPGEnc Video Mastering Works 5 Version. 5.0.5.32\n\nVideo\nID : 224 (0xE0)\nFormat : MPEG Video\nFormat version : Version 2\nFormat profile : Main@Main\nFormat settings, BVOP : Yes\nFormat settings, Matrix : Custom\nFormat settings, GOP : Variable\nDuration : 1h 39mn\nBit rate mode : Variable\nBit rate : 621 Kbps\nMaximum bit rate : 8 000 Kbps\nWidth : 352 pixels\nHeight : 288 pixels\nDisplay aspect ratio : 4:3\nFrame rate : 25.000 fps\nStandard : NTSC\nColor space : YUV\nChroma subsampling : 4:2:0\nBit depth : 8 bits\nScan type : Progressive\nCompression mode : Lossy\nBits/(Pixel*Frame) : 0.245\nTime code of first frame : 00:00:00:00\nTime code source : Group of pictures header\nStream size : 443 MiB (85%)\nWriting library : TMPGEnc Video Mastering Works 5 Version. 5.0.5.32\n\nAudio\nID : 192 (0xC0)\nFormat : MPEG Audio\nFormat version : Version 1\nFormat profile : Layer 2\nDuration : 1h 39mn\nBit rate mode : Constant\nBit rate : 96.0 Kbps\nChannel count : 2 channels\nSampling rate : 48.0 KHz\nCompression mode : Lossy\nStream size : 68.5 MiB (13%)\n &lt;a href=&quot;\nhttp://i.imgur.com/z9Q3i7b.jpg&quot; rel=&quot;nofollow&quot; target=&quot;_NEW&quot;&gt;\nhttp://i.imgur.com/z9Q3i7b.jpg&lt;/a&gt;\n\nThanks to The Shadow!!\n\nSeed n ENjoy!!","torrent":{"xt":"urn:btih:6b298d4b9af3f020acbcca9471236a8019335877","amp;dn":"6--5%3D2++%282014%29+Scam+Rip+The+Shadow.mpg","amp;tr":["udp%3A%2F%2Ftracker.openbittorrent.com%3A80","udp%3A%2F%2Fopen.demonii.com%3A1337","udp%3A%2F%2Ftracker.coppersurfer.tk%3A6969","udp%3A%2F%2Fexodus.desync.com%3A6969"],"infoHash":"6b298d4b9af3f020acbcca9471236a8019335877","infoHashBuffer":{"type":"Buffer","data":[107,41,141,75,154,243,240,32,172,188,202,148,113,35,106,128,25,51,88,119]},"announce":[],"urlList":[]}}